<svg id="eyr2hfCVcXD1" xmlns="http://www.w3.org/2000/svg" xmlns:xlink="http://www.w3.org/1999/xlink" viewBox="0 0 300 300" shape-rendering="geometricPrecision" text-rendering="geometricPrecision"><g transform="matrix(1.148398 0.329046-.381739 1.332299 56.454431-98.312577)"><ellipse rx="79.198474" ry="48.568703" transform="matrix(.986525-.163609 0.163609 0.986525 107.538169 176.65532)" fill="#323335" stroke-width="0"/><g><ellipse rx="50.09542" ry="74.90458" transform="matrix(.838961 0.544191-.544191 0.838961 154.770995 141.698691)" fill="#323335" stroke-width="0"/><rect width="11.129655" height="29.580153" rx="0" ry="0" transform="translate(172.158332 58.206107)" fill="#323335" stroke-width="0"/></g></g><g transform="matrix(1.230061 0.352445-.385396 1.345062 34.711086-94.401703)"><line x1="-13.597329" y1="4.568703" x2="8.402671" y2="-1.431297" transform="translate(139.319877 94.126189)" fill="none" stroke="#fff" stroke-width="3"/><line x1="-13.597329" y1="4.568703" x2="8.402671" y2="-1.431297" transform="matrix(.980345-.197292 0.197292 0.980345 171.319877 103.126189)" fill="none" stroke="#fff" stroke-width="3"/><line x1="-13.597329" y1="4.568703" x2="8.402671" y2="-1.431297" transform="matrix(.980345-.197292 0.197292 0.980345 204.319877 110.126189)" fill="none" stroke="#fff" stroke-width="3"/><line x1="-13.597329" y1="4.568703" x2="8.402671" y2="-1.431297" transform="matrix(.400063 0.916487-.916487 0.400063 155.319877 103.126189)" fill="none" stroke="#fff" stroke-width="3"/><line x1="-13.597329" y1="4.568703" x2="8.402671" y2="-1.431297" transform="matrix(.400063 0.916487-.916487 0.400063 188.319877 110.126189)" fill="none" stroke="#fff" stroke-width="3"/></g><line x1="17.029841" y1="-41.422163" x2="-17.029841" y2="41.422163" transform="translate(34.872428 238.881065)" fill="none" stroke="#323335" stroke-width="14"/><line x1="17.029841" y1="-41.422163" x2="-17.029841" y2="41.422163" transform="matrix(.891894-.452244 0.600672 1.184616 176.872428 226.881065)" fill="none" stroke="#323335" stroke-width="14"/><line x1="17.029841" y1="-41.422163" x2="-17.029841" y2="41.422163" transform="matrix(.549843-.835268 0.985057 0.648447 226.240333 229.263517)" fill="none" stroke="#323335" stroke-width="14"/><line x1="17.029841" y1="-41.422163" x2="-17.029841" y2="41.422163" transform="matrix(.825436-.564496 0.564496 0.825436 84.240333 241.263517)" fill="none" stroke="#323335" stroke-width="14"/><line x1="-15" y1="0" x2="15" y2="0" transform="translate(430.600826 253.133192)" fill="none" stroke="#3f5787" stroke-width="3"/></svg>
